<svg xmlns="http://www.w3.org/2000/svg" width="256" height="256" viewBox="0 0 100 100"><rect width="100" height="100" rx="20" fill="#f0c574"></rect><path fill="#000000" d="M33.05 48.58Q39.58 49.48 43.03 52.85Q46.48 56.23 46.48 61.70L46.48 61.70Q46.48 67.70 42.31 71.79Q38.15 75.88 29.53 75.88L29.53 75.88L7.40 75.88L7.40 75.28L13.55 74.67L13.55 25.33L7.40 24.73L7.40 24.13L26.08 24.13Q34.93 24.13 39.58 27.27Q44.23 30.43 44.23 36.43L44.23 36.43Q44.23 41.23 41.30 44.38Q38.38 47.53 33.05 48.28L33.05 48.28L33.05 48.58ZM25.85 25.02L19.33 25.02L19.33 48.05L28.03 48.05Q33.05 48.05 35.26 45.13Q37.48 42.20 37.48 36.43L37.48 36.43Q37.48 25.02 25.85 25.02L25.85 25.02ZM27.73 74.97Q39.35 74.97 39.35 61.92L39.35 61.92Q39.35 55.10 36.43 52.03Q33.50 48.95 27.73 48.95L27.73 48.95L19.33 48.95L19.33 74.97L27.73 74.97ZM79.18 48.58Q85.70 49.48 89.15 52.85Q92.60 56.23 92.60 61.70L92.60 61.70Q92.60 67.70 88.44 71.79Q84.28 75.88 75.65 75.88L75.65 75.88L53.53 75.88L53.53 75.28L59.68 74.67L59.68 25.33L53.53 24.73L53.53 24.13L72.20 24.13Q81.05 24.13 85.70 27.27Q90.35 30.43 90.35 36.43L90.35 36.43Q90.35 41.23 87.43 44.38Q84.50 47.53 79.18 48.28L79.18 48.28L79.18 48.58ZM71.98 25.02L65.45 25.02L65.45 48.05L74.15 48.05Q79.18 48.05 81.39 45.13Q83.60 42.20 83.60 36.43L83.60 36.43Q83.60 25.02 71.98 25.02L71.98 25.02ZM73.85 74.97Q85.47 74.97 85.47 61.92L85.47 61.92Q85.47 55.10 82.55 52.03Q79.63 48.95 73.85 48.95L73.85 48.95L65.45 48.95L65.45 74.97L73.85 74.97Z"></path></svg>